<mxfile host="app.diagrams.net" agent="Mozilla/5.0 (X11; Ubuntu; Linux x86_64; rv:141.0) Gecko/20100101 Firefox/141.0" version="28.1.2">
  <diagram name="Página-1" id="w2kIhA_1tUEeSSIlJSaH">
    <mxGraphModel dx="746" dy="454" grid="1" gridSize="10" guides="1" tooltips="1" connect="1" arrows="1" fold="1" page="1" pageScale="1" pageWidth="827" pageHeight="1169" math="0" shadow="0">
      <root>
        <mxCell id="0" />
        <mxCell id="1" parent="0" />
        <mxCell id="el5TF62LQUf2bP_EFKbW-8" value="Funcionalidad" style="swimlane;fontStyle=0;childLayout=stackLayout;horizontal=1;startSize=26;fillColor=none;horizontalStack=0;resizeParent=1;resizeParentMax=0;resizeLast=0;collapsible=1;marginBottom=0;whiteSpace=wrap;html=1;" parent="1" vertex="1">
          <mxGeometry x="381" y="450" width="196" height="104" as="geometry">
            <mxRectangle x="274" y="330" width="100" height="30" as="alternateBounds" />
          </mxGeometry>
        </mxCell>
        <mxCell id="el5TF62LQUf2bP_EFKbW-10" value="+ titulo VarChar (20:) NN UQ" style="text;strokeColor=none;fillColor=none;align=left;verticalAlign=top;spacingLeft=4;spacingRight=4;overflow=hidden;rotatable=0;points=[[0,0.5],[1,0.5]];portConstraint=eastwest;whiteSpace=wrap;html=1;" parent="el5TF62LQUf2bP_EFKbW-8" vertex="1">
          <mxGeometry y="26" width="196" height="26" as="geometry" />
        </mxCell>
        <mxCell id="el5TF62LQUf2bP_EFKbW-11" value="&lt;div&gt;+ ambiente VarChar (5)&lt;/div&gt;&lt;div&gt;&lt;br&gt;&lt;/div&gt;" style="text;strokeColor=none;fillColor=none;align=left;verticalAlign=top;spacingLeft=4;spacingRight=4;overflow=hidden;rotatable=0;points=[[0,0.5],[1,0.5]];portConstraint=eastwest;whiteSpace=wrap;html=1;" parent="el5TF62LQUf2bP_EFKbW-8" vertex="1">
          <mxGeometry y="52" width="196" height="26" as="geometry" />
        </mxCell>
        <mxCell id="el5TF62LQUf2bP_EFKbW-14" value="+ resumen VarChar (150) NN" style="text;strokeColor=none;fillColor=none;align=left;verticalAlign=top;spacingLeft=4;spacingRight=4;overflow=hidden;rotatable=0;points=[[0,0.5],[1,0.5]];portConstraint=eastwest;whiteSpace=wrap;html=1;" parent="el5TF62LQUf2bP_EFKbW-8" vertex="1">
          <mxGeometry y="78" width="196" height="26" as="geometry" />
        </mxCell>
        <mxCell id="el5TF62LQUf2bP_EFKbW-26" value="Topico" style="swimlane;fontStyle=0;childLayout=stackLayout;horizontal=1;startSize=26;fillColor=none;horizontalStack=0;resizeParent=1;resizeParentMax=0;resizeLast=0;collapsible=1;marginBottom=0;whiteSpace=wrap;html=1;" parent="1" vertex="1">
          <mxGeometry x="560" y="126" width="196" height="78" as="geometry">
            <mxRectangle x="274" y="330" width="100" height="30" as="alternateBounds" />
          </mxGeometry>
        </mxCell>
        <mxCell id="el5TF62LQUf2bP_EFKbW-27" value="+ idTopico int PK" style="text;strokeColor=none;fillColor=none;align=left;verticalAlign=top;spacingLeft=4;spacingRight=4;overflow=hidden;rotatable=0;points=[[0,0.5],[1,0.5]];portConstraint=eastwest;whiteSpace=wrap;html=1;" parent="el5TF62LQUf2bP_EFKbW-26" vertex="1">
          <mxGeometry y="26" width="196" height="26" as="geometry" />
        </mxCell>
        <mxCell id="el5TF62LQUf2bP_EFKbW-28" value="+ nomTopico VarChar (20) NN" style="text;strokeColor=none;fillColor=none;align=left;verticalAlign=top;spacingLeft=4;spacingRight=4;overflow=hidden;rotatable=0;points=[[0,0.5],[1,0.5]];portConstraint=eastwest;whiteSpace=wrap;html=1;" parent="el5TF62LQUf2bP_EFKbW-26" vertex="1">
          <mxGeometry y="52" width="196" height="26" as="geometry" />
        </mxCell>
        <mxCell id="el5TF62LQUf2bP_EFKbW-34" value="Gestion_Error" style="swimlane;fontStyle=0;childLayout=stackLayout;horizontal=1;startSize=26;fillColor=none;horizontalStack=0;resizeParent=1;resizeParentMax=0;resizeLast=0;collapsible=1;marginBottom=0;whiteSpace=wrap;html=1;" parent="1" vertex="1">
          <mxGeometry x="620" y="450" width="196" height="104" as="geometry">
            <mxRectangle x="274" y="330" width="100" height="30" as="alternateBounds" />
          </mxGeometry>
        </mxCell>
        <mxCell id="el5TF62LQUf2bP_EFKbW-36" value="+ titulo VarChar NN" style="text;strokeColor=none;fillColor=none;align=left;verticalAlign=top;spacingLeft=4;spacingRight=4;overflow=hidden;rotatable=0;points=[[0,0.5],[1,0.5]];portConstraint=eastwest;whiteSpace=wrap;html=1;" parent="el5TF62LQUf2bP_EFKbW-34" vertex="1">
          <mxGeometry y="26" width="196" height="26" as="geometry" />
        </mxCell>
        <mxCell id="el5TF62LQUf2bP_EFKbW-132" value="+ fechaPublicacion date NN" style="text;strokeColor=none;fillColor=none;align=left;verticalAlign=top;spacingLeft=4;spacingRight=4;overflow=hidden;rotatable=0;points=[[0,0.5],[1,0.5]];portConstraint=eastwest;whiteSpace=wrap;html=1;" parent="el5TF62LQUf2bP_EFKbW-34" vertex="1">
          <mxGeometry y="52" width="196" height="26" as="geometry" />
        </mxCell>
        <mxCell id="el5TF62LQUf2bP_EFKbW-38" value="+ descripción (200) VarChar NN" style="text;strokeColor=none;fillColor=none;align=left;verticalAlign=top;spacingLeft=4;spacingRight=4;overflow=hidden;rotatable=0;points=[[0,0.5],[1,0.5]];portConstraint=eastwest;whiteSpace=wrap;html=1;" parent="el5TF62LQUf2bP_EFKbW-34" vertex="1">
          <mxGeometry y="78" width="196" height="26" as="geometry" />
        </mxCell>
        <mxCell id="el5TF62LQUf2bP_EFKbW-42" value="Usuario" style="swimlane;fontStyle=0;childLayout=stackLayout;horizontal=1;startSize=26;fillColor=none;horizontalStack=0;resizeParent=1;resizeParentMax=0;resizeLast=0;collapsible=1;marginBottom=0;whiteSpace=wrap;html=1;" parent="1" vertex="1">
          <mxGeometry x="60" y="390" width="196" height="104" as="geometry">
            <mxRectangle x="274" y="330" width="100" height="30" as="alternateBounds" />
          </mxGeometry>
        </mxCell>
        <mxCell id="el5TF62LQUf2bP_EFKbW-43" value="+ RUT int PK" style="text;strokeColor=none;fillColor=none;align=left;verticalAlign=top;spacingLeft=4;spacingRight=4;overflow=hidden;rotatable=0;points=[[0,0.5],[1,0.5]];portConstraint=eastwest;whiteSpace=wrap;html=1;" parent="el5TF62LQUf2bP_EFKbW-42" vertex="1">
          <mxGeometry y="26" width="196" height="26" as="geometry" />
        </mxCell>
        <mxCell id="el5TF62LQUf2bP_EFKbW-44" value="+ nombreUsuario VarChar (35) NN" style="text;strokeColor=none;fillColor=none;align=left;verticalAlign=top;spacingLeft=4;spacingRight=4;overflow=hidden;rotatable=0;points=[[0,0.5],[1,0.5]];portConstraint=eastwest;whiteSpace=wrap;html=1;" parent="el5TF62LQUf2bP_EFKbW-42" vertex="1">
          <mxGeometry y="52" width="196" height="26" as="geometry" />
        </mxCell>
        <mxCell id="el5TF62LQUf2bP_EFKbW-45" value="&lt;div&gt;+ eMail VarChar (35) NN&lt;/div&gt;" style="text;strokeColor=none;fillColor=none;align=left;verticalAlign=top;spacingLeft=4;spacingRight=4;overflow=hidden;rotatable=0;points=[[0,0.5],[1,0.5]];portConstraint=eastwest;whiteSpace=wrap;html=1;" parent="el5TF62LQUf2bP_EFKbW-42" vertex="1">
          <mxGeometry y="78" width="196" height="26" as="geometry" />
        </mxCell>
        <mxCell id="el5TF62LQUf2bP_EFKbW-55" value="ingeniero" style="swimlane;fontStyle=0;childLayout=stackLayout;horizontal=1;startSize=26;fillColor=none;horizontalStack=0;resizeParent=1;resizeParentMax=0;resizeLast=0;collapsible=1;marginBottom=0;whiteSpace=wrap;html=1;" parent="1" vertex="1">
          <mxGeometry x="60" y="100" width="196" height="104" as="geometry">
            <mxRectangle x="274" y="330" width="100" height="30" as="alternateBounds" />
          </mxGeometry>
        </mxCell>
        <mxCell id="el5TF62LQUf2bP_EFKbW-56" value="+ RUT int PK" style="text;strokeColor=none;fillColor=none;align=left;verticalAlign=top;spacingLeft=4;spacingRight=4;overflow=hidden;rotatable=0;points=[[0,0.5],[1,0.5]];portConstraint=eastwest;whiteSpace=wrap;html=1;" parent="el5TF62LQUf2bP_EFKbW-55" vertex="1">
          <mxGeometry y="26" width="196" height="26" as="geometry" />
        </mxCell>
        <mxCell id="el5TF62LQUf2bP_EFKbW-57" value="+ nombre VarChar(35) NN" style="text;strokeColor=none;fillColor=none;align=left;verticalAlign=top;spacingLeft=4;spacingRight=4;overflow=hidden;rotatable=0;points=[[0,0.5],[1,0.5]];portConstraint=eastwest;whiteSpace=wrap;html=1;" parent="el5TF62LQUf2bP_EFKbW-55" vertex="1">
          <mxGeometry y="52" width="196" height="26" as="geometry" />
        </mxCell>
        <mxCell id="el5TF62LQUf2bP_EFKbW-58" value="&lt;div&gt;+ eMail (35) VarChar NN&lt;/div&gt;" style="text;strokeColor=none;fillColor=none;align=left;verticalAlign=top;spacingLeft=4;spacingRight=4;overflow=hidden;rotatable=0;points=[[0,0.5],[1,0.5]];portConstraint=eastwest;whiteSpace=wrap;html=1;" parent="el5TF62LQUf2bP_EFKbW-55" vertex="1">
          <mxGeometry y="78" width="196" height="26" as="geometry" />
        </mxCell>
        <mxCell id="el5TF62LQUf2bP_EFKbW-59" value="Solicitúd" style="swimlane;fontStyle=0;childLayout=stackLayout;horizontal=1;startSize=26;fillColor=none;horizontalStack=0;resizeParent=1;resizeParentMax=0;resizeLast=0;collapsible=1;marginBottom=0;whiteSpace=wrap;html=1;" parent="1" vertex="1">
          <mxGeometry x="560" y="250" width="196" height="104" as="geometry">
            <mxRectangle x="274" y="330" width="100" height="30" as="alternateBounds" />
          </mxGeometry>
        </mxCell>
        <mxCell id="el5TF62LQUf2bP_EFKbW-60" value="+ idSolicitud int PK" style="text;strokeColor=none;fillColor=none;align=left;verticalAlign=top;spacingLeft=4;spacingRight=4;overflow=hidden;rotatable=0;points=[[0,0.5],[1,0.5]];portConstraint=eastwest;whiteSpace=wrap;html=1;" parent="el5TF62LQUf2bP_EFKbW-59" vertex="1">
          <mxGeometry y="26" width="196" height="26" as="geometry" />
        </mxCell>
        <mxCell id="el5TF62LQUf2bP_EFKbW-64" value="+ idTopico int NN" style="text;strokeColor=none;fillColor=none;align=left;verticalAlign=top;spacingLeft=4;spacingRight=4;overflow=hidden;rotatable=0;points=[[0,0.5],[1,0.5]];portConstraint=eastwest;whiteSpace=wrap;html=1;" parent="el5TF62LQUf2bP_EFKbW-59" vertex="1">
          <mxGeometry y="52" width="196" height="26" as="geometry" />
        </mxCell>
        <mxCell id="el5TF62LQUf2bP_EFKbW-66" value="+ estado VarChar (10)" style="text;strokeColor=none;fillColor=none;align=left;verticalAlign=top;spacingLeft=4;spacingRight=4;overflow=hidden;rotatable=0;points=[[0,0.5],[1,0.5]];portConstraint=eastwest;whiteSpace=wrap;html=1;" parent="el5TF62LQUf2bP_EFKbW-59" vertex="1">
          <mxGeometry y="78" width="196" height="26" as="geometry" />
        </mxCell>
        <mxCell id="el5TF62LQUf2bP_EFKbW-71" style="edgeStyle=orthogonalEdgeStyle;rounded=0;orthogonalLoop=1;jettySize=auto;html=1;" parent="1" edge="1">
          <mxGeometry relative="1" as="geometry">
            <mxPoint x="719" y="450.01" as="sourcePoint" />
            <mxPoint x="661.0091743119267" y="354.00000000000006" as="targetPoint" />
            <Array as="points">
              <mxPoint x="719" y="420" />
              <mxPoint x="661" y="420" />
            </Array>
          </mxGeometry>
        </mxCell>
        <mxCell id="el5TF62LQUf2bP_EFKbW-77" value="&lt;div&gt;Detalle_Topico&lt;/div&gt;&lt;div&gt;&lt;br&gt;&lt;/div&gt;" style="swimlane;fontStyle=0;childLayout=stackLayout;horizontal=1;startSize=26;fillColor=none;horizontalStack=0;resizeParent=1;resizeParentMax=0;resizeLast=0;collapsible=1;marginBottom=0;whiteSpace=wrap;html=1;" parent="1" vertex="1">
          <mxGeometry x="304" y="126" width="196" height="78" as="geometry">
            <mxRectangle x="274" y="330" width="100" height="30" as="alternateBounds" />
          </mxGeometry>
        </mxCell>
        <mxCell id="el5TF62LQUf2bP_EFKbW-78" value="+ idTopico int FK" style="text;strokeColor=none;fillColor=none;align=left;verticalAlign=top;spacingLeft=4;spacingRight=4;overflow=hidden;rotatable=0;points=[[0,0.5],[1,0.5]];portConstraint=eastwest;whiteSpace=wrap;html=1;" parent="el5TF62LQUf2bP_EFKbW-77" vertex="1">
          <mxGeometry y="26" width="196" height="26" as="geometry" />
        </mxCell>
        <mxCell id="el5TF62LQUf2bP_EFKbW-80" value="+ RUT int FK" style="text;strokeColor=none;fillColor=none;align=left;verticalAlign=top;spacingLeft=4;spacingRight=4;overflow=hidden;rotatable=0;points=[[0,0.5],[1,0.5]];portConstraint=eastwest;whiteSpace=wrap;html=1;" parent="el5TF62LQUf2bP_EFKbW-77" vertex="1">
          <mxGeometry y="52" width="196" height="26" as="geometry" />
        </mxCell>
        <mxCell id="el5TF62LQUf2bP_EFKbW-88" value="" style="endArrow=none;html=1;rounded=0;" parent="1" source="el5TF62LQUf2bP_EFKbW-55" target="el5TF62LQUf2bP_EFKbW-77" edge="1">
          <mxGeometry relative="1" as="geometry">
            <mxPoint x="320" y="340" as="sourcePoint" />
            <mxPoint x="480" y="340" as="targetPoint" />
          </mxGeometry>
        </mxCell>
        <mxCell id="el5TF62LQUf2bP_EFKbW-89" value="1" style="resizable=0;html=1;whiteSpace=wrap;align=left;verticalAlign=bottom;" parent="el5TF62LQUf2bP_EFKbW-88" connectable="0" vertex="1">
          <mxGeometry x="-1" relative="1" as="geometry">
            <mxPoint x="4" y="-5" as="offset" />
          </mxGeometry>
        </mxCell>
        <mxCell id="el5TF62LQUf2bP_EFKbW-90" value="1..2" style="resizable=0;html=1;whiteSpace=wrap;align=right;verticalAlign=bottom;" parent="el5TF62LQUf2bP_EFKbW-88" connectable="0" vertex="1">
          <mxGeometry x="1" relative="1" as="geometry">
            <mxPoint x="-9" y="18" as="offset" />
          </mxGeometry>
        </mxCell>
        <mxCell id="el5TF62LQUf2bP_EFKbW-92" value="" style="endArrow=none;html=1;rounded=0;" parent="1" source="el5TF62LQUf2bP_EFKbW-55" target="el5TF62LQUf2bP_EFKbW-95" edge="1">
          <mxGeometry relative="1" as="geometry">
            <mxPoint x="330" y="300" as="sourcePoint" />
            <mxPoint x="380" y="230" as="targetPoint" />
          </mxGeometry>
        </mxCell>
        <mxCell id="el5TF62LQUf2bP_EFKbW-93" value="1" style="resizable=0;html=1;whiteSpace=wrap;align=left;verticalAlign=bottom;" parent="el5TF62LQUf2bP_EFKbW-92" connectable="0" vertex="1">
          <mxGeometry x="-1" relative="1" as="geometry">
            <mxPoint x="-15" y="20" as="offset" />
          </mxGeometry>
        </mxCell>
        <mxCell id="el5TF62LQUf2bP_EFKbW-94" value="1..20" style="resizable=0;html=1;whiteSpace=wrap;align=right;verticalAlign=bottom;" parent="el5TF62LQUf2bP_EFKbW-92" connectable="0" vertex="1">
          <mxGeometry x="1" relative="1" as="geometry">
            <mxPoint x="45" as="offset" />
          </mxGeometry>
        </mxCell>
        <mxCell id="el5TF62LQUf2bP_EFKbW-95" value="Detalle_Ingeniero" style="swimlane;fontStyle=0;childLayout=stackLayout;horizontal=1;startSize=26;fillColor=none;horizontalStack=0;resizeParent=1;resizeParentMax=0;resizeLast=0;collapsible=1;marginBottom=0;whiteSpace=wrap;html=1;" parent="1" vertex="1">
          <mxGeometry x="60" y="276" width="196" height="78" as="geometry">
            <mxRectangle x="274" y="330" width="100" height="30" as="alternateBounds" />
          </mxGeometry>
        </mxCell>
        <mxCell id="el5TF62LQUf2bP_EFKbW-96" value="+ RUT int FK NN" style="text;strokeColor=none;fillColor=none;align=left;verticalAlign=top;spacingLeft=4;spacingRight=4;overflow=hidden;rotatable=0;points=[[0,0.5],[1,0.5]];portConstraint=eastwest;whiteSpace=wrap;html=1;" parent="el5TF62LQUf2bP_EFKbW-95" vertex="1">
          <mxGeometry y="26" width="196" height="26" as="geometry" />
        </mxCell>
        <mxCell id="el5TF62LQUf2bP_EFKbW-110" value="+ idSolicitud int FK NN" style="text;strokeColor=none;fillColor=none;align=left;verticalAlign=top;spacingLeft=4;spacingRight=4;overflow=hidden;rotatable=0;points=[[0,0.5],[1,0.5]];portConstraint=eastwest;whiteSpace=wrap;html=1;" parent="el5TF62LQUf2bP_EFKbW-95" vertex="1">
          <mxGeometry y="52" width="196" height="26" as="geometry" />
        </mxCell>
        <mxCell id="el5TF62LQUf2bP_EFKbW-101" value="" style="endArrow=none;html=1;rounded=0;" parent="1" source="el5TF62LQUf2bP_EFKbW-95" target="el5TF62LQUf2bP_EFKbW-59" edge="1">
          <mxGeometry relative="1" as="geometry">
            <mxPoint x="420" y="330" as="sourcePoint" />
            <mxPoint x="461" y="367" as="targetPoint" />
          </mxGeometry>
        </mxCell>
        <mxCell id="el5TF62LQUf2bP_EFKbW-102" value="3" style="resizable=0;html=1;whiteSpace=wrap;align=left;verticalAlign=bottom;" parent="el5TF62LQUf2bP_EFKbW-101" connectable="0" vertex="1">
          <mxGeometry x="-1" relative="1" as="geometry" />
        </mxCell>
        <mxCell id="el5TF62LQUf2bP_EFKbW-103" value="1" style="resizable=0;html=1;whiteSpace=wrap;align=right;verticalAlign=bottom;" parent="el5TF62LQUf2bP_EFKbW-101" connectable="0" vertex="1">
          <mxGeometry x="1" relative="1" as="geometry">
            <mxPoint x="-10" y="-10" as="offset" />
          </mxGeometry>
        </mxCell>
        <mxCell id="el5TF62LQUf2bP_EFKbW-104" value="" style="endArrow=none;html=1;rounded=0;" parent="1" source="el5TF62LQUf2bP_EFKbW-77" target="el5TF62LQUf2bP_EFKbW-26" edge="1">
          <mxGeometry relative="1" as="geometry">
            <mxPoint x="546" y="110" as="sourcePoint" />
            <mxPoint x="706" y="110" as="targetPoint" />
          </mxGeometry>
        </mxCell>
        <mxCell id="el5TF62LQUf2bP_EFKbW-105" value="3" style="resizable=0;html=1;whiteSpace=wrap;align=left;verticalAlign=bottom;" parent="el5TF62LQUf2bP_EFKbW-104" connectable="0" vertex="1">
          <mxGeometry x="-1" relative="1" as="geometry" />
        </mxCell>
        <mxCell id="el5TF62LQUf2bP_EFKbW-106" value="1" style="resizable=0;html=1;whiteSpace=wrap;align=right;verticalAlign=bottom;" parent="el5TF62LQUf2bP_EFKbW-104" connectable="0" vertex="1">
          <mxGeometry x="1" relative="1" as="geometry" />
        </mxCell>
        <mxCell id="el5TF62LQUf2bP_EFKbW-107" value="" style="endArrow=none;html=1;rounded=0;" parent="1" source="el5TF62LQUf2bP_EFKbW-26" target="el5TF62LQUf2bP_EFKbW-59" edge="1">
          <mxGeometry relative="1" as="geometry">
            <mxPoint x="460" y="380" as="sourcePoint" />
            <mxPoint x="620" y="380" as="targetPoint" />
          </mxGeometry>
        </mxCell>
        <mxCell id="el5TF62LQUf2bP_EFKbW-108" value="1" style="resizable=0;html=1;whiteSpace=wrap;align=left;verticalAlign=bottom;" parent="el5TF62LQUf2bP_EFKbW-107" connectable="0" vertex="1">
          <mxGeometry x="-1" relative="1" as="geometry">
            <mxPoint x="10" y="22" as="offset" />
          </mxGeometry>
        </mxCell>
        <mxCell id="el5TF62LQUf2bP_EFKbW-109" value="1...*" style="resizable=0;html=1;whiteSpace=wrap;align=right;verticalAlign=bottom;" parent="el5TF62LQUf2bP_EFKbW-107" connectable="0" vertex="1">
          <mxGeometry x="1" relative="1" as="geometry" />
        </mxCell>
        <mxCell id="el5TF62LQUf2bP_EFKbW-111" value="" style="endArrow=none;html=1;rounded=0;" parent="1" source="el5TF62LQUf2bP_EFKbW-42" target="el5TF62LQUf2bP_EFKbW-117" edge="1">
          <mxGeometry relative="1" as="geometry">
            <mxPoint x="290" y="527.7477477477478" as="sourcePoint" />
            <mxPoint x="220" y="510" as="targetPoint" />
          </mxGeometry>
        </mxCell>
        <mxCell id="el5TF62LQUf2bP_EFKbW-112" value="1" style="resizable=0;html=1;whiteSpace=wrap;align=left;verticalAlign=bottom;" parent="el5TF62LQUf2bP_EFKbW-111" connectable="0" vertex="1">
          <mxGeometry x="-1" relative="1" as="geometry">
            <mxPoint x="4" y="16" as="offset" />
          </mxGeometry>
        </mxCell>
        <mxCell id="el5TF62LQUf2bP_EFKbW-113" value="0..50" style="resizable=0;html=1;whiteSpace=wrap;align=right;verticalAlign=bottom;" parent="el5TF62LQUf2bP_EFKbW-111" connectable="0" vertex="1">
          <mxGeometry x="1" relative="1" as="geometry">
            <mxPoint x="32" y="-4" as="offset" />
          </mxGeometry>
        </mxCell>
        <mxCell id="el5TF62LQUf2bP_EFKbW-114" value="" style="endArrow=none;html=1;rounded=0;" parent="1" source="el5TF62LQUf2bP_EFKbW-117" edge="1">
          <mxGeometry relative="1" as="geometry">
            <mxPoint x="230" y="559" as="sourcePoint" />
            <mxPoint x="720" y="530" as="targetPoint" />
            <Array as="points">
              <mxPoint x="720" y="600" />
            </Array>
          </mxGeometry>
        </mxCell>
        <mxCell id="el5TF62LQUf2bP_EFKbW-115" value="1" style="resizable=0;html=1;whiteSpace=wrap;align=left;verticalAlign=bottom;" parent="el5TF62LQUf2bP_EFKbW-114" connectable="0" vertex="1">
          <mxGeometry x="-1" relative="1" as="geometry">
            <mxPoint x="4" y="16" as="offset" />
          </mxGeometry>
        </mxCell>
        <mxCell id="el5TF62LQUf2bP_EFKbW-116" value="1" style="resizable=0;html=1;whiteSpace=wrap;align=right;verticalAlign=bottom;" parent="el5TF62LQUf2bP_EFKbW-114" connectable="0" vertex="1">
          <mxGeometry x="1" relative="1" as="geometry">
            <mxPoint x="-10" y="21" as="offset" />
          </mxGeometry>
        </mxCell>
        <mxCell id="el5TF62LQUf2bP_EFKbW-117" value="Detalle_Solicitud" style="swimlane;fontStyle=0;childLayout=stackLayout;horizontal=1;startSize=26;fillColor=none;horizontalStack=0;resizeParent=1;resizeParentMax=0;resizeLast=0;collapsible=1;marginBottom=0;whiteSpace=wrap;html=1;" parent="1" vertex="1">
          <mxGeometry x="60" y="560" width="196" height="78" as="geometry">
            <mxRectangle x="274" y="330" width="100" height="30" as="alternateBounds" />
          </mxGeometry>
        </mxCell>
        <mxCell id="el5TF62LQUf2bP_EFKbW-118" value="+ rutUsuario int PK FK" style="text;strokeColor=none;fillColor=none;align=left;verticalAlign=top;spacingLeft=4;spacingRight=4;overflow=hidden;rotatable=0;points=[[0,0.5],[1,0.5]];portConstraint=eastwest;whiteSpace=wrap;html=1;" parent="el5TF62LQUf2bP_EFKbW-117" vertex="1">
          <mxGeometry y="26" width="196" height="26" as="geometry" />
        </mxCell>
        <mxCell id="el5TF62LQUf2bP_EFKbW-124" value="+ idSolicitud int PK FK" style="text;strokeColor=none;fillColor=none;align=left;verticalAlign=top;spacingLeft=4;spacingRight=4;overflow=hidden;rotatable=0;points=[[0,0.5],[1,0.5]];portConstraint=eastwest;whiteSpace=wrap;html=1;" parent="el5TF62LQUf2bP_EFKbW-117" vertex="1">
          <mxGeometry y="52" width="196" height="26" as="geometry" />
        </mxCell>
        <mxCell id="el5TF62LQUf2bP_EFKbW-126" value="" style="endArrow=none;html=1;rounded=0;" parent="1" source="el5TF62LQUf2bP_EFKbW-117" target="el5TF62LQUf2bP_EFKbW-8" edge="1">
          <mxGeometry relative="1" as="geometry">
            <mxPoint x="256" y="598" as="sourcePoint" />
            <mxPoint x="720" y="530" as="targetPoint" />
            <Array as="points">
              <mxPoint x="480" y="600" />
            </Array>
          </mxGeometry>
        </mxCell>
        <mxCell id="el5TF62LQUf2bP_EFKbW-127" value="1" style="resizable=0;html=1;whiteSpace=wrap;align=left;verticalAlign=bottom;" parent="el5TF62LQUf2bP_EFKbW-126" connectable="0" vertex="1">
          <mxGeometry x="-1" relative="1" as="geometry">
            <mxPoint x="4" y="16" as="offset" />
          </mxGeometry>
        </mxCell>
        <mxCell id="el5TF62LQUf2bP_EFKbW-128" value="1" style="resizable=0;html=1;whiteSpace=wrap;align=right;verticalAlign=bottom;" parent="el5TF62LQUf2bP_EFKbW-126" connectable="0" vertex="1">
          <mxGeometry x="1" relative="1" as="geometry">
            <mxPoint x="-10" y="21" as="offset" />
          </mxGeometry>
        </mxCell>
        <mxCell id="el5TF62LQUf2bP_EFKbW-129" style="edgeStyle=orthogonalEdgeStyle;rounded=0;orthogonalLoop=1;jettySize=auto;html=1;" parent="1" source="el5TF62LQUf2bP_EFKbW-8" edge="1">
          <mxGeometry relative="1" as="geometry">
            <mxPoint x="519.998" y="451.3520000000001" as="sourcePoint" />
            <mxPoint x="661.19" y="354" as="targetPoint" />
            <Array as="points">
              <mxPoint x="480" y="420" />
              <mxPoint x="661" y="420" />
            </Array>
          </mxGeometry>
        </mxCell>
      </root>
    </mxGraphModel>
  </diagram>
</mxfile>
